<svg xmlns="http://www.w3.org/2000/svg" width="24" height="24" fill="none"><path fill="#000" fill-rule="evenodd" d="M17.6 7.942H6.48a1.2 1.2 0 0 0-1.198 1.125l-.474 7.571A4.2 4.2 0 0 0 9 21.1h6.08a4.2 4.2 0 0 0 4.191-4.462l-.473-7.571a1.2 1.2 0 0 0-1.197-1.125Zm-11.12-1.8a3 3 0 0 0-2.995 2.813l-.473 7.57A6 6 0 0 0 9 22.9h6.08a6 6 0 0 0 5.988-6.374l-.473-7.571A3 3 0 0 0 17.6 6.142H6.479Z" clip-rule="evenodd"/><path fill="#000" fill-rule="evenodd" d="M12.276 2.8a2.164 2.164 0 0 0-2.163 2.164v1.178h-1.8V4.964a3.964 3.964 0 0 1 7.927 0v1.178h-1.8V4.964A2.164 2.164 0 0 0 12.276 2.8ZM12.276 12.312a2.164 2.164 0 0 0 2.163-2.164v-.235a.9.9 0 1 1 1.8 0v.235a3.964 3.964 0 1 1-7.927 0v-.235a.9.9 0 1 1 1.8 0v.235c0 1.195.969 2.164 2.164 2.164Z" clip-rule="evenodd"/></svg>